<svg width="24" height="24" xmlns="http://www.w3.org/2000/svg" fill="none">

 <g>
  <title>Layer 1</title>
  <path id="svg_1" fill="white" d="m18.8,9.90991c-1.13,0 -2.14,0.54999 -2.77,1.38999c-0.63,-0.84 -1.64,-1.38999 -2.77,-1.38999c-1.91,0 -3.45997,1.55999 -3.45997,3.47999c0,0.74 0.12,1.43 0.31997,2.06c0.98,3.11 4.02,4.98 5.52,5.49c0.21,0.07 0.56,0.07 0.77,0c1.5,-0.51 4.54,-2.37 5.52,-5.49c0.21,-0.64 0.32,-1.32 0.32,-2.06c0.01,-1.92 -1.54,-3.47999 -3.45,-3.47999z"/>
  <path id="svg_2" fill="#eaeaea" d="m19.75,8.3401c0,0.23 -0.23,0.38 -0.45,0.32c-1.35,-0.35 -2.83,-0.06 -3.95,0.74c-0.22,0.16 -0.52,0.16 -0.73,0c-0.79,-0.58 -1.75,-0.9 -2.76,-0.9c-2.58,0 -4.67997,2.11 -4.67997,4.71c0,2.82 1.35,4.93 2.70997,6.34c0.07,0.07 0.01,0.19 -0.08,0.15c-2.72997,-0.93 -8.80997,-4.79 -8.80997,-11.36c0,-2.9 2.33,-5.24 5.21,-5.24c1.71,0 3.21997,0.82 4.16997,2.09c0.96,-1.27 2.47,-2.09 4.17,-2.09c2.87,0 5.2,2.34 5.2,5.24z"/>
 </g>
</svg>