<?xml version="1.0" encoding="UTF-8"?>
<svg id="Layer_1" data-name="Layer 1" xmlns="http://www.w3.org/2000/svg" xmlns:xlink="http://www.w3.org/1999/xlink" viewBox="0 0 768.82 330.7">
  <defs>
    <style>
      .cls-1 {
        fill: url(#linear-gradient);
      }

      .cls-1, .cls-2, .cls-3, .cls-4, .cls-5, .cls-6, .cls-7, .cls-8, .cls-9, .cls-10, .cls-11, .cls-12 {
        stroke-width: 0px;
      }

      .cls-2 {
        fill: #2ea94a;
      }

      .cls-3 {
        fill: url(#linear-gradient-6);
      }

      .cls-4 {
        fill: #41484f;
      }

      .cls-5 {
        fill: url(#linear-gradient-5);
      }

      .cls-6, .cls-13 {
        fill: none;
      }

      .cls-13 {
        stroke: #231f20;
        stroke-miterlimit: 10;
        stroke-width: .25px;
      }

      .cls-14 {
        clip-path: url(#clippath-1);
      }

      .cls-7 {
        fill: url(#linear-gradient-2);
      }

      .cls-8 {
        fill: url(#linear-gradient-7);
      }

      .cls-9 {
        fill: url(#linear-gradient-3);
      }

      .cls-15 {
        clip-path: url(#clippath);
      }

      .cls-10 {
        fill: #27aae1;
      }

      .cls-11 {
        fill: #16a1dc;
      }

      .cls-12 {
        fill: url(#linear-gradient-4);
      }
    </style>
    <clipPath id="clippath">
      <path class="cls-6" d="M652.33,112.34c-19.5-4.44-34.42-7.97-49.49-18.3-7.13-4.88-13.91-9.65-19.01-18.74-2.16-3.84-10.39-18.53-4.02-33.34,4.47-10.39,13.65-15.1,16.09-16.31,18.4-9.11,38.55,1.4,44.75,4.63,7.63,3.98,13.49,8.98,17.86,13.68.97,1.04-.19,2.66-1.5,2.08-.69-.31-1.42-.62-2.18-.92-6.93-2.73-12.64-3.3-14.55-3.45-3.73-.3-6.42-.51-9.92.29-2.07.48-8.23,1.89-12.56,7.27-5.04,6.27-4.36,13.86-4.04,17.36.56,6.15,2.91,10.5,5.18,14.6,4.07,7.35,8.85,11.91,11.13,14.05,7.03,6.6,15.69,11.37,23.3,14.66,1.45.63.73,2.82-.81,2.47-.08-.02-.15-.03-.23-.05Z"/>
    </clipPath>
    <linearGradient id="linear-gradient" x1="622.97" y1="43.35" x2="629.91" y2="79.83" gradientUnits="userSpaceOnUse">
      <stop offset="0" stop-color="#16a1dc"/>
      <stop offset="1" stop-color="#293982"/>
    </linearGradient>
    <linearGradient id="linear-gradient-2" x1="596.42" y1="64.83" x2="633.16" y2="97.75" gradientUnits="userSpaceOnUse">
      <stop offset="0" stop-color="#16a1dc"/>
      <stop offset="1" stop-color="#0e61a8"/>
    </linearGradient>
    <linearGradient id="linear-gradient-3" x1="605.24" y1="80.44" x2="620.89" y2="91.24" gradientUnits="userSpaceOnUse">
      <stop offset="0" stop-color="#16a1dc"/>
      <stop offset="1" stop-color="#0e8dcd"/>
    </linearGradient>
    <clipPath id="clippath-1">
      <path class="cls-6" d="M668.04,42.24c-.84.93-2.35-.01-1.87-1.17.4-.95.83-1.94,1.31-2.97,2.12-4.57,5.85-12.45,13.35-20.32,3.71-3.89,9.73-10.07,19.77-14.11C709.81-.03,717.64-.03,719.56,0c14.34.22,24.36,7.08,27.55,9.33,3.67,2.58,13.91,10.52,18.96,25.06,4.45,12.82,2.41,23.74,1.4,28.8-1.63,8.15-4.6,13.92-7.2,18.88-2.28,4.36-6.52,11.57-15.28,21.16-11.2,12.26-21.78,19.61-30.57,25.64-17.55,12.05-32.55,18.99-43.57,24.03-7.7,3.52-14.72,6.39-20.76,8.7-1.24.48-2.13-1.23-1.02-1.97,1.96-1.32,4.04-2.76,6.21-4.3,9.52-6.79,16.5-12.69,19.84-15.58,7.39-6.39,13.71-11.86,21.01-20.43,8.53-10,13.44-18.39,14.7-20.57,3.17-5.51,6.55-11.48,9.11-20.13,1.49-5.02,3.26-11.21,2.94-19.47-.16-4.13-.46-10.12-3.82-16.75-1.49-2.95-3.91-7.58-9.18-10.97-.77-.49-4.18-2.62-9.2-3.47-4.69-.8-8.35-.08-10.36.33-7.34,1.51-12.24,5.22-15.76,7.94-1.8,1.39-4.09,3.36-6.49,6.01Z"/>
    </clipPath>
    <linearGradient id="linear-gradient-4" x1="745.98" y1="31.5" x2="699.1" y2="24.74" gradientUnits="userSpaceOnUse">
      <stop offset="0" stop-color="#138e45"/>
      <stop offset="1" stop-color="#2ea94a"/>
    </linearGradient>
    <linearGradient id="linear-gradient-5" x1="632.49" y1="-7.37" x2="739.18" y2="54.64" gradientUnits="userSpaceOnUse">
      <stop offset="0" stop-color="#015033"/>
      <stop offset="1" stop-color="#2ea94a"/>
    </linearGradient>
    <linearGradient id="linear-gradient-6" x1="700.33" y1="26.09" x2="741.78" y2="57.83" gradientUnits="userSpaceOnUse">
      <stop offset="0" stop-color="#098e46"/>
      <stop offset="1" stop-color="#2ea94a"/>
    </linearGradient>
    <linearGradient id="linear-gradient-7" x1="718.96" y1="47.25" x2="725.72" y2="95.45" xlink:href="#linear-gradient-5"/>
  </defs>
  <g>
    <path class="cls-10" d="M394.04,296.68c.58,0,1.07-.21,1.49-.63.42-.42.63-.92.63-1.51s-.21-1.09-.63-1.53c-.42-.44-.92-.65-1.49-.65-.61,0-1.12.22-1.54.65-.42.44-.63.95-.63,1.53s.21,1.08.63,1.51c.42.42.93.63,1.54.63Z"/>
    <path class="cls-10" d="M413.04,317.69c-.61,0-1.12.22-1.54.66-.42.44-.63.95-.63,1.53s.21,1.08.63,1.51c.42.42.93.63,1.54.63s1.07-.21,1.49-.63c.42-.42.63-.92.63-1.51s-.21-1.09-.63-1.53c-.42-.44-.92-.66-1.49-.66Z"/>
    <path class="cls-10" d="M407.11,317.69c-.61,0-1.12.22-1.54.66-.42.44-.63.95-.63,1.53s.21,1.08.63,1.51c.42.42.93.63,1.54.63s1.07-.21,1.49-.63c.42-.42.63-.92.63-1.51s-.21-1.09-.63-1.53c-.42-.44-.92-.66-1.49-.66Z"/>
    <path class="cls-10" d="M426.02,282.36h-3.51l.82,22.23c.06,1.46.04,2.59-.06,3.41-.1.82-.48,1.38-1.15,1.7-.66.32-1.81.48-3.45.48-1.66,0-2.93-.08-3.82-.24-.9-.16-1.53-.37-1.9-.63-.38-.26-.59-.58-.65-.96-.06-.38-.09-.79-.09-1.22,0-.47.05-1.01.15-1.64.1-.63.22-1.26.37-1.9.14-.64.27-1.22.39-1.75l-3.38-.66c-.37,1.92-.69,3.48-.95,4.67-.26,1.19-.6,2.1-1.02,2.73-.42.63-1.03,1.05-1.84,1.27-.81.22-1.93.33-3.38.33-1.79,0-3.12-.13-3.98-.39-.87-.26-1.43-.63-1.69-1.09-.26-.47-.39-.99-.39-1.57,0-.47.05-1.01.15-1.64.1-.63.22-1.26.37-1.9.14-.64.27-1.22.39-1.75l-3.38-.66c-.38,1.92-.69,3.48-.95,4.67-.26,1.19-.57,2.1-.93,2.73-.36.63-.89,1.05-1.58,1.27-.69.22-1.64.33-2.86.33h0c-1.64,0-2.85-.15-3.61-.44-.76-.29-1.25-.82-1.47-1.59-.22-.77-.35-1.87-.41-3.3l-.87-22.49h-3.55l.87,23.89c.06,1.75.32,3.17.78,4.28.46,1.11,1.3,1.92,2.53,2.45,1.23.52,2.99.79,5.3.79,1.12,0,2.1-.06,2.94-.17.84-.12,1.57-.33,2.21-.65.63-.32,1.22-.77,1.75-1.35.22-.24.44-.52.65-.83.15.35.33.68.54.98.49.68,1.27,1.19,2.34,1.53,1.07.33,2.54.5,4.41.5,1.33,0,2.47-.06,3.44-.17.97-.12,1.8-.33,2.49-.65.69-.32,1.31-.77,1.84-1.35.2-.22.39-.47.58-.73.04.12.07.25.11.36.22.57.59,1.04,1.13,1.42.53.38,1.32.66,2.36.85,1.04.19,2.44.28,4.2.28h0c1.96,0,3.53-.2,4.69-.61,1.17-.41,2.05-1.02,2.64-1.83.59-.81.97-1.82,1.12-3.01.16-1.19.21-2.56.15-4.1l-.87-21.83Z"/>
    <path class="cls-10" d="M463.81,304.22c-.5-.86-1.28-1.86-2.34-3.01s-2.48-2.5-4.28-4.06c-1.8-1.56-4.09-3.35-6.86-5.39l-2.03,2.71c.75.54,1.45,1.06,2.13,1.57-.65.17-1.25.43-1.8.81-1,.68-1.76,1.58-2.29,2.69-.53,1.11-.8,2.31-.8,3.62s.27,2.47.8,3.58c.49,1.02,1.15,1.94,1.96,2.77-.49.13-1.01.25-1.57.35-1.23.22-2.62.33-4.18.33-1.64,0-2.85-.15-3.61-.44-.76-.29-1.25-.82-1.47-1.59-.22-.77-.35-1.87-.41-3.3l-.87-22.49h-3.55l.87,23.89c.06,1.75.32,3.17.78,4.28.46,1.11,1.3,1.92,2.53,2.45,1.23.52,2.99.79,5.3.79h0c1.96,0,3.89-.23,5.8-.7,1.23-.3,2.4-.71,3.5-1.19.06.03.1.07.16.1,1.14.61,2.33,1.08,3.57,1.42,1.24.33,2.45.5,3.63.5,1.5,0,2.7-.26,3.61-.79.91-.52,1.57-1.21,1.99-2.05.42-.84.63-1.75.63-2.71,0-.58-.07-1.2-.22-1.86-.15-.65-.47-1.41-.97-2.27ZM449.21,300.88c.29-.58.69-1.05,1.19-1.42.5-.36,1.07-.55,1.71-.55s1.17.18,1.62.55c.45.36.79.83,1.04,1.4.24.57.37,1.16.37,1.77s-.16,1.35-.48,2.14c-.32.79-.86,1.55-1.62,2.29-.38.37-.82.7-1.33,1.02-.8-.6-1.47-1.3-2-2.11-.62-.95-.93-2.03-.93-3.25,0-.64.14-1.25.43-1.83ZM460.76,309.94c-.46.33-1.18.5-2.16.5-1.04,0-2.13-.17-3.27-.52-.14-.04-.27-.09-.4-.14.78-.63,1.45-1.33,2-2.11.94-1.32,1.41-2.83,1.41-4.52,0-.11-.01-.21-.02-.32.12.13.25.26.36.39.92,1.03,1.58,1.9,1.97,2.6.39.7.62,1.24.69,1.64.07.39.11.66.11.81,0,.79-.23,1.35-.69,1.68Z"/>
    <path class="cls-10" d="M473.38,281.27c.94-.29,1.75-.57,2.44-.83l-.69-2.23c-.55.2-1.16.42-1.84.63-.34.11-.69.22-1.06.32-.18-.06-.37-.13-.58-.24-.51-.25-.95-.59-1.34-1.03-.39-.44-.58-.96-.58-1.57,0-.49.19-.88.56-1.16.38-.28.89-.42,1.56-.42.32,0,.61.03.87.09.26.06.53.12.82.17l.35-2.18c-.32-.12-.66-.2-1.02-.26-.36-.06-.7-.09-1.02-.09-.78,0-1.51.15-2.18.44-.68.29-1.23.74-1.64,1.33-.42.6-.63,1.33-.63,2.2,0,.96.34,1.82,1.02,2.58.33.36.66.67,1.01.91l-.21.05c-.46.12-1.07.26-1.82.44l.52,2.36c.81-.2,1.69-.44,2.64-.7.95-.26,1.9-.54,2.83-.83Z"/>
    <path class="cls-10" d="M488.02,290.77c1.07-.6,2.37-1.28,3.92-2.05,1.54-.77,3.47-1.71,5.78-2.82l-1.47-3.23c-1.85.93-3.54,1.78-5.08,2.55-1.54.77-2.93,1.49-4.15,2.16-1.23.67-2.29,1.31-3.2,1.92s-1.65,1.22-2.23,1.83c-.2.2-.37.48-.5.83-.13.35-.23.73-.3,1.14-.07.41-.11.83-.11,1.27,0,.2.2.5.61.87.4.38.94.84,1.62,1.38.68.54,1.42,1.15,2.23,1.83.81.68,1.62,1.43,2.42,2.25,1.56,1.57,2.59,2.85,3.09,3.84.5.99.76,1.82.76,2.49,0,.38-.08.75-.24,1.11-.16.36-.48.7-.95,1s-1.21.55-2.21.74c-1,.19-2.34.28-4.05.28h-4.07c-1.64,0-2.85-.15-3.61-.44-.76-.29-1.25-.82-1.47-1.59-.22-.77-.35-1.87-.41-3.3l-.78-19.43h-3.55l.78,20.83c.09,1.75.36,3.17.82,4.28.46,1.11,1.3,1.92,2.51,2.45,1.21.52,2.97.79,5.28.79h3.94c2.54,0,4.56-.21,6.06-.63,1.5-.42,2.62-.97,3.38-1.64.75-.67,1.24-1.38,1.47-2.14s.35-1.46.35-2.1c0-1.16-.25-2.31-.74-3.45-.49-1.14-1.21-2.29-2.16-3.47-.95-1.18-2.13-2.41-3.53-3.69-1.2-1.09-2.56-2.26-4.06-3.48.35-.25.7-.49,1.05-.71.81-.52,1.75-1.08,2.81-1.68Z"/>
    <path class="cls-10" d="M541.42,290.77c1.07-.6,2.37-1.28,3.92-2.05,1.54-.77,3.47-1.71,5.78-2.82l-1.47-3.23c-1.85.93-3.54,1.78-5.08,2.55-1.54.77-2.93,1.49-4.15,2.16-1.23.67-2.29,1.31-3.2,1.92s-1.65,1.22-2.23,1.83c-.2.2-.37.48-.5.83-.13.35-.23.73-.3,1.14-.07.41-.11.83-.11,1.27,0,.2.2.5.61.87.4.38.94.84,1.62,1.38.68.54,1.42,1.15,2.23,1.83.81.68,1.62,1.43,2.42,2.25,1.56,1.57,2.59,2.85,3.09,3.84.5.99.76,1.82.76,2.49,0,.38-.08.75-.24,1.11-.16.36-.48.7-.95,1-.48.31-1.21.55-2.21.74-1,.19-2.34.28-4.05.28h-4.07c-.75,0-1.41-.15-1.99-.46-.58-.31-1.11-.89-1.6-1.75-.49-.86-1.01-2.12-1.56-3.78-.58-1.8-1.12-3.17-1.64-4.1-.52-.93-1.05-1.56-1.6-1.88s-1.18-.48-1.9-.48c-.84,0-1.85.24-3.05.72-1.2.48-2.43,1.19-3.7,2.14-1.27.95-2.45,2.1-3.55,3.45-1.1,1.35-1.99,2.92-2.68,4.69-.69,1.78-1.04,3.74-1.04,5.9,0,.81.11,2.07.35,3.76.23,1.69.56,3.6,1,5.74.43,2.14.95,4.33,1.56,6.57l3.42-.83c-.29-1.14-.6-2.41-.93-3.82-.33-1.41-.63-2.83-.91-4.26-.27-1.43-.5-2.77-.67-4.04-.17-1.27-.26-2.31-.26-3.12,0-1.02.13-2.19.39-3.52.24-1.21.71-2.33,1.4-3.38.52.94,1.11,1.81,1.78,2.57.76.87,1.58,1.61,2.45,2.21.87.6,1.75,1.05,2.64,1.35.89.31,1.76.46,2.6.46.72,0,1.41-.13,2.05-.39.65-.26,1.24-.66,1.77-1.2.25-.26.49-.55.7-.88.5.52,1.05.96,1.68,1.29.79.41,1.75.61,2.88.61h3.94c2.54,0,4.56-.21,6.06-.63,1.5-.42,2.62-.97,3.38-1.64.75-.67,1.24-1.38,1.47-2.14s.35-1.46.35-2.1c0-1.16-.25-2.31-.74-3.45-.49-1.14-1.21-2.29-2.16-3.47-.95-1.18-2.13-2.41-3.53-3.69-1.2-1.09-2.55-2.26-4.06-3.48.35-.25.7-.49,1.05-.71.81-.52,1.75-1.08,2.81-1.68ZM526.06,309.52c-.12.41-.34.71-.67.92-.33.2-.76.31-1.28.31-.72,0-1.55-.21-2.49-.63-.94-.42-1.86-1.08-2.77-1.99-.86-.86-1.6-1.92-2.21-3.17.45-.51.92-.98,1.41-1.37.55-.44,1.09-.8,1.62-1.09.53-.29,1.04-.51,1.51-.65.48-.15.87-.22,1.19-.22s.62.13.91.39c.29.26.57.66.84,1.2s.56,1.21.84,2.01c.29.8.61,1.72.95,2.77.2.61.25,1.12.13,1.53Z"/>
    <path class="cls-10" d="M580.47,307.47c-.53.23-.98.41-1.34.55-.36.13-.69.24-.97.33-.29.09-.61.19-.95.31-.49.03-1.05-.04-1.67-.22s-1.25-.42-1.88-.74c-.63-.32-1.21-.73-1.73-1.22-.52-.49-.94-1.05-1.25-1.68-.32-.63-.48-1.32-.48-2.07,0-.99.23-1.83.69-2.53.46-.7,1.1-1.24,1.9-1.64.81-.39,1.73-.59,2.77-.59.52,0,1.1.04,1.73.13.63.09,1.24.2,1.82.35l.74-3.36c-.69-.23-1.41-.41-2.16-.52-.75-.12-1.46-.17-2.12-.17-1.73,0-3.27.35-4.61,1.05-1.34.7-2.39,1.67-3.16,2.93-.76,1.25-1.15,2.71-1.15,4.37,0,1.34.26,2.5.78,3.47.52.98,1.12,1.78,1.82,2.4s1.3,1.08,1.82,1.38c-.17,0-.49.02-.95.07-.46.04-1.19.08-2.18.11-1,.03-2.4.04-4.22.04-1.64,0-2.85-.15-3.61-.44-.76-.29-1.25-.82-1.47-1.59-.22-.77-.35-1.87-.41-3.3l-.87-22.49h-3.55l.87,23.89c.06,1.75.32,3.17.78,4.28.46,1.11,1.3,1.92,2.53,2.45,1.23.52,2.99.79,5.3.79h0c3,0,5.67-.17,8.03-.5,2.35-.33,4.53-.81,6.53-1.42s3.97-1.31,5.91-2.1l-1.21-3.19c-.84.38-1.52.68-2.06.92Z"/>
    <path class="cls-10" d="M607.71,291.4c.58,0,1.07-.21,1.49-.63.42-.42.63-.92.63-1.51s-.21-1.09-.63-1.53c-.42-.44-.92-.66-1.49-.66-.61,0-1.12.22-1.54.66-.42.44-.63.95-.63,1.53s.21,1.08.63,1.51c.42.42.93.63,1.54.63Z"/>
    <path class="cls-10" d="M611.3,302.67c-.23-1.16-.51-2.34-.84-3.54-.33-1.19-.69-2.26-1.06-3.19l-3.51,1.31c.43,1.11.84,2.23,1.21,3.36s.68,2.21.91,3.21c.23,1,.35,1.87.35,2.6,0,1.08-.19,1.88-.56,2.42-.38.54-.98.9-1.82,1.07-.84.17-1.96.26-3.38.26h0c-1.13,0-2.01-.23-2.66-.68-.65-.45-1.18-1.3-1.58-2.55-.2-.73-.47-1.53-.8-2.4-.33-.87-.71-1.8-1.13-2.79-.42-.99-.9-1.99-1.45-3.01l-3.16,1.62c.75,1.31,1.43,2.7,2.06,4.17.62,1.47.93,2.92.93,4.34,0,.99-.17,2.02-.52,3.08-.35,1.06-.93,2.1-1.75,3.12-.82,1.02-1.93,1.98-3.33,2.88-1.4.9-3.15,1.7-5.26,2.4l1.26,3.32c1.18-.32,2.49-.86,3.94-1.62,1.44-.76,2.83-1.72,4.15-2.9,1.33-1.18,2.42-2.56,3.27-4.15.53-.99.87-2.04,1.07-3.16.37.49.85.91,1.44,1.24.79.45,1.82.68,3.09.68h0c1.3,0,2.45-.09,3.46-.28,1.01-.19,1.9-.48,2.66-.87.76-.39,1.39-.9,1.88-1.53.49-.63.86-1.38,1.1-2.27.24-.89.37-1.91.37-3.08,0-.87-.12-1.89-.35-3.06Z"/>
  </g>
  <g class="cls-15">
    <path class="cls-11" d="M652.33,112.34c-19.5-4.44-34.42-7.97-49.49-18.3-7.13-4.88-13.91-9.65-19.01-18.74-2.16-3.84-10.39-18.53-4.02-33.34,4.47-10.39,13.65-15.1,16.09-16.31,18.4-9.11,38.55,1.4,44.75,4.63,10.52,5.48,17.65,12.9,22.19,18.81-1.93-1.17-4.63-2.63-8.01-3.97-6.93-2.73-12.64-3.3-14.55-3.45-3.73-.3-6.42-.51-9.92.29-2.07.48-8.23,1.89-12.56,7.27-5.04,6.27-4.36,13.86-4.04,17.36.56,6.15,2.91,10.5,5.18,14.6,4.07,7.35,8.85,11.91,11.13,14.05,14.09,13.23,34.73,19.07,40.34,20.56-4.11-.64-10.44-1.73-18.08-3.47Z"/>
    <path class="cls-1" d="M657.03,109.27c-.11.25-7.23-1.86-14.79-5.69-5.21-2.64-22.13-11.49-32.39-30.16-4.52-8.24-5.42-14.14-5.64-15.74-.96-7.13.22-13.03,1.23-16.59,6.42-.15,12.83-.29,19.25-.44-2.47,2.3-6.35,6.59-8.08,12.93-2.96,10.81,2.31,20.26,6.17,27.19,6.9,12.38,16.68,18.88,20.43,21.31,7.15,4.64,13.92,6.95,13.81,7.2Z"/>
    <path class="cls-7" d="M657.03,109.27c.2.16.29.29.26.37-.11.32-2.01,0-5.68-.94-9.32-2.39-16.72-5.49-21.99-8.05-7.24-3.51-18.25-8.97-27.41-19.31-5.36-6.04-8.57-12.05-9.11-13.08-1.64-3.11-2.77-5.86-3.53-7.94,5.04.01,10.09.02,15.13.04.39,1.6.98,3.69,1.88,6.06.36.96,1.67,4.33,4.25,8.7,1.11,1.88,3.71,6.06,7.96,10.82,1.57,1.76,6.55,7.16,14.52,12.48,8.5,5.69,16.88,8.94,23.72,10.84Z"/>
    <path class="cls-9" d="M613.71,96.78c10.41,6.37,19.54,9.34,24.89,11.04,15.41,4.9,29.64,6.14,29.76,5.57.09-.43-7.64-2.57-12.77-3.77-1.94-.45-2.5-.54-4.37-1.01-.41-.1-5.03-1.28-10.19-3.15-13.18-4.77-23.09-11.13-23.09-11.13-3.64-2.34-7.4-4.75-11.76-8.89-5.43-5.15-9.02-10.32-11.27-14.11-3.11-.02-6.22-.05-9.33-.07,10.16,13.31,21.04,21.19,28.14,25.53Z"/>
  </g>
  <g class="cls-14">
    <path class="cls-2" d="M668.04,42.24c-.84.93-2.35-.01-1.87-1.17.4-.95.83-1.94,1.31-2.97,2.12-4.57,5.85-12.45,13.35-20.32,3.71-3.89,9.73-10.07,19.77-14.11C709.81-.03,717.64-.03,719.56,0c14.34.22,24.36,7.08,27.55,9.33,3.67,2.58,13.91,10.52,18.96,25.06,4.45,12.82,2.41,23.74,1.4,28.8-1.63,8.15-4.6,13.92-7.2,18.88-2.28,4.36-6.52,11.57-15.28,21.16-11.2,12.26-21.78,19.61-30.57,25.64-17.55,12.05-32.55,18.99-43.57,24.03-7.7,3.52-14.72,6.39-20.76,8.7-1.24.48-2.13-1.23-1.02-1.97,1.96-1.32,4.04-2.76,6.21-4.3,9.52-6.79,16.5-12.69,19.84-15.58,7.39-6.39,13.71-11.86,21.01-20.43,8.53-10,13.44-18.39,14.7-20.57,3.17-5.51,6.55-11.48,9.11-20.13,1.49-5.02,3.26-11.21,2.94-19.47-.16-4.13-.46-10.12-3.82-16.75-1.49-2.95-3.91-7.58-9.18-10.97-.77-.49-4.18-2.62-9.2-3.47-4.69-.8-8.35-.08-10.36.33-7.34,1.51-12.24,5.22-15.76,7.94-1.8,1.39-4.09,3.36-6.49,6.01Z"/>
    <path class="cls-12" d="M762.28,26.04c-2.36-3-5.48-6.32-9.51-9.42-3.53-2.72-13-9.81-26.89-10.8-10.95-.78-19.25,2.62-24.69,4.85-1.55.64-8.2,3.43-15.66,9.11-10.18,7.77-15.53,16.09-16.9,18.3-2.33,3.76-3.89,7.14-4.9,9.63.79-2.48,1.99-5.81,3.75-9.59,2.12-4.57,5.85-12.46,13.36-20.32,3.71-3.89,9.72-10.06,19.76-14.11C709.8-.03,717.63-.03,719.56,0c14.34.23,24.35,7.08,27.55,9.33,2.89,2.04,9.87,7.4,15.16,16.7Z"/>
    <path class="cls-5" d="M748.11,40.38l-12.42,12.42c-3.08-6.72-8.28-14.34-17.15-19.51-8.21-4.78-16.26-5.57-20.76-5.65-.04,0-.07,0-.11,0h-.08c-3.22-.15-5.75.34-7.29.66-7.33,1.5-12.24,5.22-15.76,7.93-1.22.95-2.67,2.16-4.23,3.67,1.46-1.55,4.2-4.33,8.03-7.53,4.88-4.07,8.68-7.25,13.81-9.73,3.03-1.46,12.69-5.97,24.62-3.82,7.63,1.37,12.84,4.87,16.97,7.64,2.36,1.58,7.61,5.37,12.71,11.76.59.73,1.13,1.45,1.66,2.17Z"/>
    <path class="cls-13" d="M700.66,27.96c-.96-.16-1.89-.26-2.75-.32,1.95.08,4.86.45,8.1,1.79.92.38,1.76.79,2.5,1.21-1.58-.85-4.32-2.07-7.85-2.68Z"/>
    <path class="cls-13" d="M711.92,32.92c.16.12.29.24.41.33,1.8,1.53,3.08,3.09,4.07,4.56-1.13-1.63-2.57-3.33-4.48-4.89Z"/>
    <path class="cls-13" d="M717.43,85.74c-.04.1-.07.19-.12.28.09-.23.19-.45.28-.68-.05.14-.11.27-.16.4Z"/>
    <path class="cls-13" d="M722.06,70.47c-1,5.92-2.63,10.29-4.19,14.18.73-1.86,1.42-3.86,2.06-6.02,1.49-5.02,3.26-11.21,2.93-19.47-.07-1.87-.17-4.12-.57-6.64,1.44,7.72.46,13.86-.23,17.95Z"/>
    <path class="cls-3" d="M765.67,33.29c-4.17,5.14-8.35,10.29-12.53,15.43-1.15-2.34-2.78-5.23-5.03-8.34-.52-.72-1.07-1.44-1.66-2.17-5.1-6.39-10.35-10.17-12.71-11.76-4.13-2.77-9.34-6.26-16.97-7.64-11.93-2.15-21.59,2.35-24.62,3.82-5.14,2.48-8.93,5.66-13.81,9.73-3.83,3.21-6.57,5.98-8.03,7.53-2.09,2.03-4.37,4.6-6.57,7.79,1.01-2.49,2.57-5.87,4.9-9.63,1.37-2.2,6.72-10.53,16.9-18.3,7.45-5.68,14.1-8.47,15.66-9.11,5.44-2.23,13.73-5.63,24.69-4.85,13.9.99,23.37,8.08,26.89,10.8,4.03,3.1,7.15,6.42,9.51,9.42,0,0,0,.01.01.02.02.03.03.06.05.09,1.23,2.17,2.37,4.55,3.33,7.15Z"/>
    <path class="cls-8" d="M737.63,96.78c-9.6,1.79-19.2,3.58-28.8,5.36,4.03-6.16,6.71-11.78,8.48-16.12.04-.1.08-.19.12-.28.05-.13.11-.26.16-.4.1-.23.19-.46.28-.69,1.57-3.89,3.19-8.26,4.19-14.18.69-4.09,1.67-10.24.23-17.95,0-.03-.01-.06-.02-.1-.48-3.02-1.41-6.42-3.23-10.02-.02-.04-.04-.08-.06-.12-.03-.05-.05-.08-.07-.13-.06-.11-.11-.21-.16-.32-.07-.14-.14-.27-.2-.39-.12-.24-.23-.43-.32-.59-.36-.68-.78-1.41-1.27-2.17-.18-.29-.37-.58-.57-.87-.99-1.46-2.28-3.03-4.07-4.56-.11-.1-.25-.21-.41-.33-.46-.37-1.09-.85-1.88-1.37-.06-.04-.11-.08-.17-.12-.02-.01-.03-.02-.05-.03-.02,0-.04-.02-.06-.03-.06-.03-.12-.07-.18-.11-.08-.05-.17-.1-.26-.16-.16-.1-.33-.2-.51-.29-.1-.06-.2-.11-.3-.16-.74-.42-1.58-.83-2.5-1.21-3.24-1.34-6.15-1.7-8.1-1.79-.05,0-.09-.01-.13-.01,4.5.08,12.55.87,20.76,5.65,8.87,5.18,14.08,12.79,17.15,19.51,2.66,5.8,3.74,10.94,4.23,13.26,2.84,13.53-.19,24.86-2.28,30.71Z"/>
    <path class="cls-13" d="M709.86,31.43c.06.04.12.08.17.12-.07-.05-.15-.1-.23-.15.02.01.03.02.05.03Z"/>
    <path class="cls-13" d="M716.97,38.68c.49.76.91,1.49,1.27,2.17-.37-.67-.78-1.4-1.27-2.17Z"/>
    <path class="cls-13" d="M722.27,52.42c-.89-4.7-2.34-8.19-3.29-10.14.02.04.05.08.06.12,1.82,3.59,2.74,7,3.23,10.02Z"/>
    <line class="cls-6" x1="735.68" y1="52.8" x2="734.33" y2="54.16"/>
  </g>
  <g>
    <path class="cls-4" d="M25.5,238.27c0,2.27-.55,4.25-1.65,5.93-1.1,1.68-2.71,2.97-4.81,3.88-2.11.91-4.66,1.36-7.67,1.36-1.33,0-2.63-.09-3.9-.26-1.27-.18-2.48-.43-3.65-.77-1.16-.34-2.27-.76-3.32-1.27v-7.55c1.82.8,3.71,1.53,5.67,2.18,1.96.65,3.9.97,5.82.97,1.33,0,2.4-.17,3.21-.52.81-.35,1.4-.83,1.77-1.44.37-.61.55-1.31.55-2.1,0-.96-.32-1.78-.97-2.47-.65-.68-1.53-1.32-2.66-1.91s-2.4-1.23-3.82-1.91c-.89-.42-1.86-.93-2.91-1.53-1.05-.6-2.05-1.34-2.99-2.22-.94-.87-1.72-1.94-2.32-3.19-.6-1.25-.9-2.75-.9-4.5,0-2.29.52-4.25,1.57-5.88s2.55-2.87,4.5-3.74c1.95-.87,4.25-1.3,6.91-1.3,1.99,0,3.9.23,5.7.69,1.81.46,3.7,1.13,5.68,2.01l-2.62,6.32c-1.77-.72-3.35-1.27-4.75-1.67s-2.82-.59-4.27-.59c-1.01,0-1.88.16-2.6.49-.72.32-1.26.78-1.63,1.36-.37.59-.55,1.26-.55,2.03,0,.91.27,1.67.8,2.29.53.62,1.34,1.22,2.41,1.8,1.08.58,2.42,1.25,4.03,2.02,1.96.93,3.63,1.89,5.02,2.9,1.39,1.01,2.46,2.19,3.21,3.54.75,1.36,1.13,3.04,1.13,5.05Z"/>
    <path class="cls-4" d="M45.61,218.99c3.93,0,6.95.86,9.05,2.57,2.1,1.71,3.15,4.32,3.15,7.82v19.54h-5.59l-1.55-3.99h-.21c-.84,1.05-1.7,1.91-2.57,2.57-.87.66-1.88,1.15-3.02,1.47-1.14.31-2.52.47-4.14.47-1.73,0-3.28-.33-4.65-1-1.37-.66-2.45-1.68-3.24-3.06-.79-1.37-1.18-3.12-1.18-5.23,0-3.11,1.09-5.41,3.28-6.88,2.19-1.48,5.46-2.29,9.84-2.45l5.09-.16v-1.29c0-1.54-.4-2.67-1.21-3.38-.8-.72-1.92-1.08-3.36-1.08s-2.81.2-4.17.6c-1.36.4-2.73.91-4.09,1.52l-2.65-5.4c1.56-.82,3.3-1.47,5.23-1.94s3.93-.71,5.99-.71ZM49.86,235.33l-3.09.1c-2.59.07-4.38.53-5.39,1.39-1.01.86-1.51,1.98-1.51,3.38,0,1.22.36,2.09,1.08,2.61.72.52,1.65.77,2.81.77,1.71,0,3.16-.51,4.34-1.52,1.18-1.01,1.77-2.46,1.77-4.33v-2.41Z"/>
    <path class="cls-4" d="M94.72,219.59v29.32h-6.14l-1.08-3.75h-.42c-.63,1-1.42,1.81-2.36,2.44-.94.63-1.98,1.09-3.12,1.39-1.14.3-2.32.45-3.54.45-2.1,0-3.93-.37-5.48-1.11-1.56-.74-2.77-1.9-3.63-3.47-.87-1.57-1.3-3.62-1.3-6.14v-19.12h8v17.13c0,2.1.38,3.68,1.13,4.75.75,1.07,1.95,1.6,3.59,1.6s2.9-.37,3.83-1.11c.93-.74,1.58-1.84,1.95-3.28s.56-3.2.56-5.28v-13.8h8Z"/>
    <path class="cls-4" d="M114.17,249.44c-3.27,0-5.93-1.28-7.99-3.84-2.05-2.56-3.08-6.32-3.08-11.29s1.04-8.82,3.12-11.4c2.08-2.58,4.8-3.87,8.16-3.87,1.4,0,2.63.19,3.7.58,1.07.38,1.99.9,2.77,1.55.78.65,1.44,1.37,1.98,2.18h.26c-.1-.56-.23-1.39-.38-2.48-.15-1.09-.22-2.22-.22-3.37v-9.39h8.03v40.81h-6.14l-1.55-3.8h-.34c-.51.8-1.14,1.53-1.9,2.19-.76.66-1.67,1.18-2.71,1.56s-2.28.58-3.7.58ZM116.98,243.06c2.19,0,3.73-.65,4.63-1.95.9-1.3,1.38-3.27,1.43-5.89v-.87c0-2.85-.44-5.03-1.31-6.54s-2.5-2.27-4.88-2.27c-1.77,0-3.15.76-4.14,2.28-1,1.52-1.49,3.72-1.49,6.58s.5,5.03,1.51,6.48c1.01,1.45,2.43,2.18,4.26,2.18Z"/>
    <path class="cls-4" d="M144.66,208.1c1.19,0,2.21.28,3.07.83.86.55,1.29,1.58,1.29,3.08s-.43,2.51-1.29,3.08c-.86.57-1.88.85-3.07.85s-2.23-.28-3.08-.85c-.85-.57-1.27-1.6-1.27-3.08s.42-2.53,1.27-3.08c.85-.55,1.88-.83,3.08-.83ZM148.65,219.59v29.32h-8v-29.32h8Z"/>
    <path class="cls-4" d="M189.73,227.38h15.21v19.88c-2.01.66-4.1,1.19-6.27,1.59s-4.62.59-7.37.59c-3.81,0-7.05-.75-9.7-2.26s-4.68-3.72-6.06-6.66-2.07-6.55-2.07-10.83c0-4.02.77-7.5,2.32-10.44,1.55-2.94,3.81-5.21,6.79-6.82s6.62-2.41,10.92-2.41c2.03,0,4.03.22,6.01.66,1.98.44,3.77,1.01,5.38,1.7l-2.7,6.5c-1.17-.59-2.51-1.09-4.01-1.49s-3.08-.6-4.72-.6c-2.36,0-4.41.54-6.15,1.63-1.74,1.08-3.09,2.6-4.04,4.55-.95,1.95-1.43,4.24-1.43,6.88,0,2.5.34,4.72,1.02,6.65.68,1.93,1.76,3.44,3.23,4.54,1.47,1.09,3.38,1.64,5.74,1.64,1.15,0,2.13-.06,2.92-.17.8-.11,1.54-.23,2.24-.35v-8h-7.26v-6.77Z"/>
    <path class="cls-4" d="M227.3,219.04c2.71,0,5.04.52,7,1.56,1.96,1.04,3.47,2.55,4.54,4.52,1.07,1.98,1.6,4.39,1.6,7.24v3.88h-18.91c.09,2.26.76,4.03,2.03,5.31s3.03,1.93,5.28,1.93c1.87,0,3.58-.19,5.14-.58,1.56-.38,3.16-.96,4.8-1.73v6.19c-1.45.72-2.97,1.24-4.55,1.57-1.58.33-3.5.5-5.76.5-2.94,0-5.54-.54-7.8-1.63-2.26-1.08-4.04-2.74-5.32-4.96-1.29-2.22-1.93-5.02-1.93-8.39s.58-6.28,1.74-8.56c1.16-2.28,2.78-4,4.87-5.14s4.5-1.72,7.27-1.72ZM227.35,224.73c-1.56,0-2.85.5-3.87,1.49-1.02,1-1.61,2.56-1.77,4.7h11.23c-.02-1.19-.23-2.25-.64-3.17-.41-.93-1.02-1.66-1.84-2.2-.81-.54-1.85-.81-3.11-.81Z"/>
    <path class="cls-4" d="M265.08,219.04c.4,0,.87.02,1.4.07.53.04.97.1,1.3.17l-.6,7.5c-.26-.09-.63-.15-1.11-.2-.48-.04-.9-.07-1.25-.07-1.03,0-2.03.13-3,.39s-1.84.69-2.61,1.27c-.77.59-1.38,1.36-1.82,2.31-.45.95-.67,2.12-.67,3.5v14.92h-8v-29.32h6.06l1.18,4.93h.39c.58-1,1.3-1.91,2.16-2.74.87-.83,1.85-1.49,2.96-1.99s2.31-.75,3.61-.75Z"/>
    <path class="cls-4" d="M309.32,219.04c3.32,0,5.84.85,7.54,2.56,1.7,1.7,2.56,4.44,2.56,8.2v19.12h-8.03v-17.13c0-2.1-.36-3.68-1.08-4.75-.72-1.07-1.83-1.6-3.33-1.6-2.12,0-3.62.76-4.51,2.27-.89,1.51-1.34,3.68-1.34,6.49v14.71h-8v-17.13c0-1.4-.16-2.57-.47-3.51-.31-.94-.8-1.65-1.44-2.12s-1.48-.71-2.49-.71c-1.49,0-2.65.37-3.5,1.11-.85.74-1.45,1.84-1.81,3.28-.36,1.44-.54,3.2-.54,5.28v13.8h-8v-29.32h6.11l1.08,3.75h.45c.59-1.01,1.34-1.84,2.24-2.47.9-.63,1.89-1.09,2.98-1.39,1.08-.3,2.19-.45,3.3-.45,2.15,0,3.97.35,5.47,1.05,1.5.7,2.64,1.78,3.45,3.25h.71c.87-1.5,2.11-2.6,3.71-3.28,1.6-.68,3.25-1.02,4.94-1.02Z"/>
    <path class="cls-4" d="M341.41,218.99c3.93,0,6.95.86,9.05,2.57,2.1,1.71,3.15,4.32,3.15,7.82v19.54h-5.59l-1.55-3.99h-.21c-.84,1.05-1.7,1.91-2.57,2.57-.87.66-1.88,1.15-3.02,1.47-1.14.31-2.52.47-4.14.47-1.73,0-3.28-.33-4.65-1-1.37-.66-2.45-1.68-3.24-3.06-.79-1.37-1.18-3.12-1.18-5.23,0-3.11,1.09-5.41,3.28-6.88,2.19-1.48,5.46-2.29,9.84-2.45l5.09-.16v-1.29c0-1.54-.4-2.67-1.21-3.38-.8-.72-1.92-1.08-3.36-1.08s-2.81.2-4.17.6c-1.36.4-2.73.91-4.09,1.52l-2.65-5.4c1.56-.82,3.3-1.47,5.23-1.94s3.93-.71,5.99-.71ZM345.66,235.33l-3.09.1c-2.59.07-4.38.53-5.39,1.39-1.01.86-1.51,1.98-1.51,3.38,0,1.22.36,2.09,1.08,2.61.72.52,1.65.77,2.81.77,1.71,0,3.16-.51,4.34-1.52,1.18-1.01,1.77-2.46,1.77-4.33v-2.41Z"/>
    <path class="cls-4" d="M380.27,219.04c3.13,0,5.65.85,7.55,2.56,1.91,1.7,2.86,4.44,2.86,8.2v19.12h-8v-17.13c0-2.1-.38-3.68-1.14-4.75-.76-1.07-1.95-1.6-3.58-1.6-2.45,0-4.12.83-5.01,2.49-.89,1.66-1.34,4.06-1.34,7.19v13.8h-8v-29.32h6.11l1.08,3.75h.45c.63-1.01,1.41-1.84,2.35-2.47.94-.63,1.98-1.09,3.12-1.39,1.14-.3,2.33-.45,3.55-.45Z"/>
  </g>
  <g>
    <path class="cls-4" d="M446.05,248.9h-4.46v-18.07h-20.14v18.07h-4.46v-38.34h4.46v16.34h20.14v-16.34h4.46v38.34Z"/>
    <path class="cls-4" d="M480.72,234.47c0,2.36-.31,4.47-.92,6.32-.61,1.85-1.5,3.42-2.65,4.7-1.15,1.28-2.55,2.25-4.18,2.92-1.64.67-3.48,1.01-5.55,1.01-1.92,0-3.69-.34-5.28-1.01s-2.98-1.65-4.14-2.92c-1.16-1.28-2.06-2.84-2.7-4.7-.64-1.85-.96-3.96-.96-6.32,0-3.15.53-5.83,1.6-8.04,1.07-2.21,2.59-3.9,4.58-5.06,1.98-1.16,4.35-1.74,7.09-1.74s4.92.59,6.88,1.76c1.97,1.17,3.5,2.86,4.59,5.07,1.09,2.21,1.64,4.88,1.64,8.01ZM458.85,234.47c0,2.31.31,4.31.92,6.01.61,1.7,1.56,3.01,2.83,3.93,1.28.93,2.92,1.39,4.93,1.39s3.63-.46,4.92-1.39c1.29-.93,2.23-2.24,2.85-3.93.61-1.7.92-3.7.92-6.01s-.31-4.27-.92-5.94c-.61-1.67-1.56-2.96-2.83-3.87s-2.93-1.36-4.96-1.36c-2.99,0-5.18.99-6.57,2.96-1.39,1.98-2.09,4.71-2.09,8.21Z"/>
    <path class="cls-4" d="M506.84,241.03c0,1.84-.46,3.38-1.38,4.63-.92,1.25-2.23,2.19-3.93,2.82-1.7.63-3.74.94-6.1.94-2.01,0-3.75-.16-5.22-.47s-2.75-.76-3.86-1.34v-4.01c1.17.58,2.57,1.1,4.2,1.57,1.63.47,3.29.71,4.98.71,2.48,0,4.28-.4,5.4-1.21,1.12-.8,1.68-1.9,1.68-3.28,0-.79-.22-1.48-.67-2.09-.45-.6-1.19-1.19-2.24-1.76-1.05-.57-2.5-1.19-4.35-1.88-1.84-.7-3.42-1.39-4.76-2.09-1.34-.69-2.37-1.53-3.09-2.53-.73-1-1.09-2.29-1.09-3.88,0-2.43.98-4.3,2.95-5.6,1.97-1.3,4.55-1.95,7.75-1.95,1.73,0,3.35.17,4.87.51,1.51.34,2.92.8,4.24,1.38l-1.47,3.49c-1.19-.51-2.46-.94-3.8-1.28-1.35-.35-2.72-.52-4.12-.52-2.01,0-3.55.33-4.63,1-1.08.66-1.61,1.57-1.61,2.73,0,.89.25,1.63.75,2.2s1.3,1.12,2.4,1.63c1.1.51,2.55,1.1,4.35,1.78,1.8.66,3.36,1.35,4.67,2.06,1.31.71,2.32,1.57,3.03,2.57.71,1.01,1.06,2.29,1.06,3.87Z"/>
    <path class="cls-4" d="M527.35,219.63c3.58,0,6.44,1.23,8.58,3.7,2.13,2.47,3.2,6.17,3.2,11.12,0,3.27-.49,6.02-1.47,8.24-.98,2.22-2.36,3.9-4.13,5.04-1.78,1.14-3.87,1.7-6.28,1.7-1.52,0-2.86-.2-4.01-.6-1.15-.4-2.14-.94-2.96-1.63-.82-.68-1.5-1.42-2.05-2.23h-.31c.05.68.12,1.5.2,2.47.08.96.12,1.8.12,2.52v11.8h-4.38v-41.6h3.59l.58,4.25h.21c.56-.87,1.24-1.67,2.05-2.4.8-.73,1.79-1.3,2.95-1.73,1.16-.43,2.54-.64,4.13-.64ZM526.59,223.3c-1.99,0-3.6.38-4.81,1.15-1.22.77-2.1,1.92-2.66,3.45-.56,1.53-.86,3.45-.89,5.76v.84c0,2.43.27,4.48.8,6.16.53,1.68,1.42,2.96,2.65,3.83,1.23.87,2.89,1.31,4.97,1.31,1.78,0,3.27-.48,4.46-1.44s2.08-2.3,2.66-4.03c.59-1.72.88-3.7.88-5.94,0-3.39-.66-6.09-1.98-8.09-1.32-2-3.34-3-6.07-3Z"/>
    <path class="cls-4" d="M548.94,209.4c.72,0,1.33.23,1.85.7.52.46.77,1.18.77,2.16s-.26,1.68-.77,2.15c-.52.47-1.13.71-1.85.71-.75,0-1.38-.24-1.88-.71s-.75-1.19-.75-2.15.25-1.7.75-2.16c.5-.46,1.12-.7,1.88-.7ZM551.06,220.15v28.75h-4.35v-28.75h4.35Z"/>
    <path class="cls-4" d="M569.55,245.86c.72,0,1.45-.06,2.2-.18.75-.12,1.36-.27,1.84-.45v3.38c-.51.23-1.21.42-2.11.58-.9.16-1.78.24-2.64.24-1.52,0-2.9-.27-4.14-.8-1.24-.53-2.23-1.44-2.98-2.71-.74-1.28-1.11-3.04-1.11-5.3v-17.05h-4.09v-2.12l4.12-1.7,1.73-6.24h2.62v6.66h8.42v3.41h-8.42v16.92c0,1.8.42,3.15,1.25,4.04s1.94,1.34,3.32,1.34Z"/>
    <path class="cls-4" d="M590.17,219.68c3.43,0,5.97.77,7.63,2.31,1.66,1.54,2.49,4,2.49,7.37v19.54h-3.17l-.84-4.25h-.21c-.8,1.05-1.64,1.93-2.52,2.64s-1.88,1.24-3.03,1.6c-1.15.36-2.55.54-4.21.54-1.75,0-3.3-.31-4.65-.92-1.36-.61-2.42-1.54-3.2-2.78-.78-1.24-1.17-2.82-1.17-4.72,0-2.87,1.14-5.07,3.41-6.61,2.27-1.54,5.73-2.38,10.39-2.52l4.96-.21v-1.76c0-2.48-.53-4.22-1.6-5.22-1.07-1-2.57-1.49-4.51-1.49-1.5,0-2.94.22-4.3.66-1.36.44-2.66.95-3.88,1.55l-1.34-3.3c1.29-.66,2.78-1.23,4.46-1.7,1.68-.47,3.44-.71,5.3-.71ZM595.99,234.73l-4.38.18c-3.58.14-6.11.73-7.58,1.76s-2.2,2.49-2.2,4.38c0,1.64.5,2.86,1.49,3.65,1,.79,2.32,1.18,3.96,1.18,2.55,0,4.64-.71,6.27-2.12,1.63-1.42,2.44-3.54,2.44-6.37v-2.65Z"/>
    <path class="cls-4" d="M613.64,248.9h-4.38v-40.81h4.38v40.81Z"/>
  </g>
  <g>
    <path class="cls-4" d="M448.11,155.74c.7,0,1.29-.24,1.78-.73.49-.49.73-1.06.73-1.73s-.24-1.29-.73-1.78c-.49-.49-1.08-.73-1.78-.73s-1.25.24-1.73.73-.73,1.08-.73,1.78.23,1.28.71,1.75c.47.47,1.06.71,1.75.71Z"/>
    <path class="cls-4" d="M478.87,156.51c.67,0,1.24-.23,1.71-.71s.71-1.06.71-1.75-.23-1.24-.68-1.71c-.46-.47-1.03-.71-1.73-.71s-1.24.24-1.71.71c-.47.47-.71,1.04-.71,1.71s.23,1.28.68,1.75c.46.47,1.03.71,1.73.71Z"/>
    <path class="cls-4" d="M482.24,151.09c.64,0,1.18-.23,1.62-.68.44-.46.66-1,.66-1.64s-.22-1.23-.66-1.69c-.44-.46-.98-.68-1.62-.68s-1.22.23-1.66.68c-.44.46-.66,1.02-.66,1.69s.22,1.22.66,1.66c.44.44.99.66,1.66.66Z"/>
    <path class="cls-4" d="M483.2,154.05c0,.7.23,1.28.68,1.75.46.47,1.03.71,1.73.71s1.24-.24,1.71-.73c.47-.49.71-1.06.71-1.73s-.24-1.24-.71-1.71c-.47-.47-1.04-.71-1.71-.71s-1.24.24-1.71.71c-.47.47-.71,1.04-.71,1.71Z"/>
    <path class="cls-4" d="M512.64,156.51c.67,0,1.23-.23,1.69-.71.46-.47.68-1.06.68-1.75s-.23-1.24-.68-1.71c-.46-.47-1.02-.71-1.69-.71s-1.25.24-1.73.71c-.49.47-.73,1.04-.73,1.71s.23,1.28.71,1.75c.47.47,1.06.71,1.75.71Z"/>
    <path class="cls-4" d="M505.89,156.51c.67,0,1.24-.24,1.71-.73.47-.49.71-1.06.71-1.73s-.24-1.24-.71-1.71c-.47-.47-1.04-.71-1.71-.71s-1.24.24-1.71.71c-.47.47-.71,1.04-.71,1.71s.23,1.28.68,1.75c.46.47,1.03.71,1.73.71Z"/>
    <path class="cls-4" d="M592.21,178.8h-10.25v-7.79c0-7.2-3.34-10.8-10.03-10.8-3.49,0-6.22,1.11-8.18,3.33-1.96,2.22-2.94,5.08-2.94,8.57,0,2.52-.35,4.27-1.05,5.24-.7.97-1.69,1.46-2.96,1.46h-5.29c.21-2.61.32-4.85.32-6.7,0-4.65-.53-8.96-1.6-12.94l-4.1.73c1,3.86,1.5,8.05,1.5,12.58,0,2.13-.12,4.24-.36,6.33h-2.1c-2.37,0-3.97-.43-4.79-1.3-.82-.87-1.23-2.5-1.23-4.9v-10.98h-4.06v11.17c0,2.07-.32,3.64-.96,4.72-.64,1.08-1.73,1.62-3.28,1.62s-2.73-.53-3.35-1.6c-.62-1.06-.93-2.64-.93-4.74v-9.34h-4.19v8.98c0,2.4-.36,4.06-1.09,4.99-.73.93-1.93,1.39-3.6,1.39h-5.61v-18.09h-4.19v18.09h-11.08c.21-2.61.32-4.85.32-6.7,0-4.65-.53-8.96-1.6-12.94l-4.1.73c1,3.86,1.5,8.05,1.5,12.58,0,2.13-.12,4.24-.36,6.33h-2.1c-2.37,0-3.96-.43-4.79-1.3-.82-.87-1.23-2.5-1.23-4.9v-10.98h-4.06v11.17c0,2.07-.32,3.64-.96,4.72-.64,1.08-1.73,1.62-3.28,1.62s-2.73-.53-3.35-1.6c-.62-1.06-.93-2.64-.93-4.74v-9.34h-4.19v8.98c0,2.4-.36,4.06-1.09,4.99-.73.93-1.93,1.39-3.6,1.39h-4.06c-1.09,0-2.42.05-3.96.14,1.12-.82,2-1.97,2.62-3.44.62-1.47.93-3.05.93-4.72,0-3.62-.92-6.28-2.76-8-1.84-1.72-4.31-2.58-7.41-2.58-3.34,0-6.02,1.06-8.02,3.17-2,2.11-3.01,4.76-3.01,7.95,0,3.58,1,6.12,3.01,7.61l-3.24-.14h-6.52v-8.61c0-3.28-.78-5.77-2.35-7.45-1.56-1.69-4.17-2.53-7.82-2.53-2.89,0-5.67.29-8.34.87v17.73h-3.87c-4.59,0-7.78-.83-9.57-2.51-1.79-1.67-2.69-4.31-2.69-7.93,0-2.86.58-5.47,1.73-7.84l-4.47.77c-1,2.16-1.5,4.68-1.5,7.57,0,4.44,1.26,7.76,3.78,9.96,2.52,2.2,6.59,3.3,12.21,3.3h8.48v-18.23l1.32-.18c.88-.12,1.72-.18,2.51-.18,2.31,0,3.96.56,4.97,1.66,1,1.11,1.5,2.96,1.5,5.54v11.39h36.46c3.22,0,5.27-1.21,6.15-3.65.36,1.25,1.09,2.23,2.16,2.94,1.08.71,2.5,1.07,4.26,1.07,1.52,0,2.86-.35,4.01-1.05,1.15-.7,1.96-1.69,2.42-2.96.91,2.43,3.46,3.65,7.66,3.65h28.03c3.22,0,5.27-1.21,6.15-3.65.36,1.25,1.09,2.23,2.16,2.94s2.5,1.07,4.26,1.07c1.52,0,2.86-.35,4.01-1.05,1.15-.7,1.96-1.69,2.42-2.96.91,2.43,3.46,3.65,7.66,3.65h12.31c3.01,0,5.03-1.29,6.06-3.87,1.49,2.58,4.65,3.87,9.48,3.87h24.25v-32.13h-4.19v28.8ZM452.5,176.82c-1.2,1.32-2.71,1.98-4.53,1.98-2.07,0-3.65-.67-4.74-2.01-1.09-1.34-1.64-3.27-1.64-5.79s.62-4.28,1.87-5.56c1.25-1.28,2.76-1.91,4.56-1.91,2.07,0,3.63.65,4.69,1.94,1.06,1.29,1.6,3.15,1.6,5.58s-.6,4.44-1.8,5.77ZM577.86,178.8h-5.15c-2.73,0-4.7-.57-5.9-1.71-1.2-1.14-1.8-2.94-1.8-5.4s.59-4.55,1.78-5.99c1.19-1.44,2.79-2.17,4.83-2.17s3.66.65,4.69,1.94c1.03,1.29,1.55,3.37,1.55,6.22v7.11Z"/>
    <rect class="cls-4" x="609.62" y="150" width="4.19" height="32.13"/>
    <path class="cls-4" d="M18.66,185.14c-1.61,0-2.9,1.29-2.9,2.9s1.25,2.9,2.9,2.9,2.9-1.34,2.9-2.9-1.34-2.9-2.9-2.9Z"/>
    <path class="cls-4" d="M11.52,185.14c-1.61,0-2.9,1.29-2.9,2.9s1.25,2.9,2.9,2.9,2.9-1.34,2.9-2.9-1.34-2.9-2.9-2.9Z"/>
    <path class="cls-4" d="M50.49,152.03c-1.65,0-3.08,1.43-3.08,3.08s1.38,3.08,3.08,3.08,3.08-1.38,3.08-3.08-1.43-3.08-3.08-3.08Z"/>
    <path class="cls-4" d="M47.54,177.24h-8.22v-7.05c0-6.12-2.45-9.86-10.27-9.86-4.82,0-9.02.85-9.02.85v16.07h-2.99c-8.39,0-11.11-2.95-11.11-9.24,0-2.37.58-5.31,1.56-7.36l-6.34,1.03c-.67,1.83-1.16,4.6-1.16,7.01,0,8.17,4.24,13.21,16.38,13.21h9.33v-16.65s1.47-.27,2.95-.27c3.7,0,4.95,1.56,4.95,5.85v11.07h19.82v-20.98h-5.89v16.34Z"/>
    <path class="cls-4" d="M106.11,177.24h-8.17v-6.65c0-6.25-3.12-10.27-10.09-10.27-7.72,0-11.6,5.18-11.6,10.85,0,4.6-1.74,6.07-4.42,6.07h-4.24v-26.83h-5.89v31.47h10.76c3.75,0,5.53-1.38,6.34-3.44,1.56,2.05,3.57,3.44,10,3.44h23.21v-31.47h-5.89v26.83ZM92.18,177.24h-3.39c-4.64,0-6.69-2.05-6.69-6.25,0-3.48,1.96-6.03,5.31-6.03,2.99,0,4.78,1.87,4.78,6.34v5.94Z"/>
    <path class="cls-4" d="M127.4,152.29h-2.81c-2.28,0-2.99-.54-2.99-1.52,0-.76.67-1.34,2.05-1.34,1.03,0,2.05.18,2.37.27l.58-2.99c-.31-.04-1.47-.27-2.63-.27-4.33,0-6.2,2.19-6.2,4.29,0,.8.31,1.38.8,1.7-.67-.13-1.56-.13-2.37-.13v3.03h11.2v-3.03Z"/>
    <polygon class="cls-4" points="129.99 173.9 125.17 157.25 119.14 157.25 123.96 173.9 129.99 173.9"/>
    <path class="cls-4" d="M149.41,177.24h-5.27c-.13,0-.29.03-.45.07v-.07h-4.6v-26.83h-5.89v26.83h-13.75v4.64h24.24v-.06c.16.04.32.06.45.06h11.16v-31.47h-5.89v26.83Z"/>
    <rect class="cls-4" x="163.56" y="150.42" width="5.89" height="31.47"/>
    <path class="cls-4" d="M233.14,172.78v-1.21c0-6.69-2.59-11.25-11.34-11.25-3.97,0-7.45.67-7.45.67v16.25h-2.99c-8.39,0-11.11-2.95-11.11-9.24,0-2.37.58-5.31,1.56-7.36l-6.34,1.03c-.67,1.83-1.16,4.6-1.16,7.01,0,8.17,4.24,13.21,16.38,13.21h9.33v-16.69s1.21-.22,2.19-.22c3.93,0,5.98,1.79,5.98,6.74v1.07h4.95Z"/>
    <path class="cls-4" d="M205.83,185.14c-1.61,0-2.9,1.29-2.9,2.9s1.25,2.9,2.9,2.9,2.9-1.34,2.9-2.9-1.34-2.9-2.9-2.9Z"/>
    <path class="cls-4" d="M212.97,185.14c-1.61,0-2.9,1.29-2.9,2.9s1.25,2.9,2.9,2.9,2.9-1.34,2.9-2.9-1.34-2.9-2.9-2.9Z"/>
    <path class="cls-4" d="M239.49,159.84l-2.19,4.82c6.07,2.68,7.68,6.34,7.81,12.59h-15.8v4.64h21.6v-2.95c0-10.13-2.63-15.31-11.43-19.1Z"/>
    <path class="cls-4" d="M354.65,177.24h-9.11c.13-1.96.18-3.97.18-5.76,0-4.42-.58-8.79-1.43-12.36l-5.76.8c.76,3.39,1.29,7.5,1.29,11.96,0,1.38-.09,3.57-.27,5.36h-1.21c-4.11,0-5.31-.71-5.31-4.24v-11.2h-5.67v10.09c0,4.33-1.29,5.71-3.62,5.71-2.63,0-3.08-1.74-3.08-5.76v-8.26h-5.89v8.12c0,4.37-1.12,5.54-4.02,5.54h-3.26c-1.87,0-3.48-.45-4.95-1.16,2.99-2.5,4.55-5.58,4.55-8.57,0-3.88-2.72-7.32-9.37-7.32-4.42,0-9.37,2.41-12.9,4.95l-.49,4.2c3.88,1.07,6.52,3.84,9.37,6.52-2.72.89-6.2,1.38-10.44,1.38h-5.22v-15.35s-4.06-1.56-9.37-1.56c-8.17,0-11.78,5.36-11.78,11.2,0,6.34,3.26,10.35,11.92,10.35h3.53v.67c0,4.2-3.08,5.94-7.72,5.94-3.48,0-6.96-.76-6.96-.76l-.36,4.82s3.44.58,6.78.58c9.95,0,13.97-5,13.97-11.16v-.09h5c5.94,0,10.85-1.07,14.64-2.77,2.41,1.61,5.27,2.77,9.15,2.77h3.89c3.26,0,5.04-1.07,5.94-3.12.71,2.14,3.08,3.48,5.98,3.48,3.48,0,5.85-1.52,6.74-3.44,1.29,2.46,3.66,3.08,8.35,3.08h22.81v-31.47h-5.89v26.83ZM272.34,177.24h-2.86c-4.69,0-6.7-2.19-6.7-6.25,0-3.48,1.96-6.03,5.31-6.03,2.54,0,4.24.8,4.24.8v11.47ZM298.5,173.36c-2.72-2.28-5.13-4.91-8.21-6.16,1.61-1.07,4.33-2.68,6.78-2.68,2.86,0,4.24,1.65,4.24,3.75,0,1.83-.94,3.62-2.81,5.09Z"/>
    <rect class="cls-4" x="368.8" y="150.42" width="5.89" height="31.47"/>
  </g>
  <g>
    <path class="cls-11" d="M2.59,303.9c-.6-1.8-.9-3.74-.9-5.8s.3-3.99.9-5.78c.6-1.79,1.49-3.4,2.66-4.84,1.18-1.44,2.76-2.57,4.74-3.41,1.98-.84,4.26-1.25,6.82-1.25,3.14,0,5.84.63,8.11,1.88v3.61c-2.38-1.23-5-1.84-7.88-1.84-1.96,0-3.67.32-5.13.96-1.46.64-2.6,1.52-3.41,2.63-.81,1.11-1.41,2.34-1.8,3.68-.39,1.35-.59,2.8-.59,4.37s.2,3.06.59,4.41c.39,1.35.99,2.58,1.8,3.7.81,1.12,1.95,2.01,3.41,2.64,1.46.64,3.17.96,5.13.96,2.87,0,5.5-.61,7.88-1.84v3.61c-2.27,1.25-4.98,1.88-8.11,1.88-2.56,0-4.83-.42-6.82-1.25-1.99-.84-3.57-1.98-4.74-3.43-1.18-1.45-2.06-3.08-2.66-4.88Z"/>
    <path class="cls-11" d="M38.84,291.36c1.46,0,2.72.22,3.76.65,1.04.43,1.84,1.01,2.39,1.72.55.72.94,1.47,1.18,2.25.23.78.35,1.62.35,2.51v12.85c-2.38,1.41-5.11,2.12-8.19,2.12-2.85,0-5.04-.61-6.58-1.82-1.54-1.21-2.31-2.75-2.31-4.6,0-2.43,1.18-4.19,3.53-5.29s5.53-1.5,9.52-1.21v-2c0-1.25-.3-2.23-.9-2.92-.6-.69-1.67-1.04-3.21-1.04-2.61,0-5.06.65-7.33,1.96v-3.21c2.17-1.31,4.77-1.96,7.8-1.96ZM38.21,310.44c1.54,0,2.97-.33,4.27-.98v-6.19c-3.16-.26-5.47-.04-6.92.65-1.45.69-2.17,1.67-2.17,2.92,0,1.15.41,2.04,1.23,2.66.82.63,2.02.94,3.59.94Z"/>
    <path class="cls-11" d="M61.88,291.36c1.67,0,3.16.27,4.47.82v3.45c-1.28-.57-2.6-.86-3.96-.86-1.96,0-3.66.52-5.09,1.57v16.77h-4.04v-18.54c1.02-.99,2.3-1.78,3.84-2.35,1.54-.57,3.13-.86,4.78-.86Z"/>
    <path class="cls-11" d="M76.46,285.44c0,.84-.28,1.54-.84,2.12-.56.58-1.23.86-2.02.86-.84,0-1.53-.29-2.08-.86-.55-.57-.82-1.28-.82-2.12s.27-1.5.82-2.08c.55-.57,1.24-.86,2.08-.86.78,0,1.46.29,2.02.86.56.58.84,1.27.84,2.08ZM75.59,292.5v20.61h-4.04v-20.61h4.04Z"/>
    <path class="cls-11" d="M93.11,291.36c2.87,0,5.06.76,6.56,2.29,1.5,1.53,2.25,3.56,2.25,6.09v13.36h-4.04v-13.36c0-1.65-.44-2.9-1.31-3.76-.88-.86-2.12-1.29-3.74-1.29-2.01,0-3.89.59-5.64,1.76v16.66h-4.04v-18.54c2.87-2.14,6.19-3.21,9.95-3.21Z"/>
    <path class="cls-11" d="M118.11,291.36c3.45,0,6.31,1.07,8.58,3.21v15.17c0,3.16-.88,5.64-2.65,7.45s-4.24,2.7-7.43,2.7c-2.27,0-4.17-.41-5.68-1.21v-3.29c1.83.89,3.64,1.33,5.45,1.33,2.27,0,3.91-.56,4.9-1.68.99-1.12,1.49-2.8,1.49-5.02v-.35c-1.57,1.57-3.71,2.35-6.43,2.35-2.56,0-4.72-.89-6.49-2.66-1.76-1.78-2.64-4.26-2.64-7.45s.97-5.58,2.92-7.56c1.95-1.99,4.6-2.98,7.97-2.98ZM117.09,308.76c1.15,0,2.16-.17,3.04-.51.88-.34,1.72-1.01,2.53-2v-10.03c-1.23-1.07-2.76-1.61-4.58-1.61-2.06,0-3.7.63-4.92,1.9-1.21,1.27-1.82,3.05-1.82,5.35s.55,3.93,1.65,5.11c1.1,1.19,2.47,1.78,4.11,1.78Z"/>
    <path class="cls-11" d="M149.07,282.7v24.41c0,1.1.19,1.88.57,2.35.38.47,1.01.71,1.9.71s1.67-.22,2.43-.67v3.17c-.92.52-2.04.78-3.37.78-3.71,0-5.56-2.1-5.56-6.31v-24.45h4.04Z"/>
    <path class="cls-11" d="M164.32,285.44c0,.84-.28,1.54-.84,2.12-.56.58-1.23.86-2.02.86-.84,0-1.53-.29-2.08-.86-.55-.57-.82-1.28-.82-2.12s.27-1.5.82-2.08c.55-.57,1.24-.86,2.08-.86.78,0,1.46.29,2.02.86.56.58.84,1.27.84,2.08ZM163.45,292.5v20.61h-4.04v-20.61h4.04Z"/>
    <path class="cls-11" d="M175.21,282.7v30.41h-4.04v-30.41h4.04ZM190.49,292.03l-10.03,9.79,5.14,6.38c.98,1.24,2.11,1.86,3.4,1.86.65,0,1.33-.16,2.04-.47v3.14c-.81.47-1.75.71-2.82.71-2.09,0-3.91-.91-5.45-2.74l-7.07-8.96,9.7-9.69h5.09Z"/>
    <path class="cls-11" d="M204.09,291.36c2.72,0,4.95.89,6.7,2.66,1.75,1.78,2.63,4.1,2.63,6.98,0,.58-.04,1.29-.12,2.16h-15.6c.23,2.25,1.01,3.99,2.33,5.23,1.32,1.24,3.05,1.86,5.19,1.86,2.27,0,4.53-.71,6.78-2.12v3.33c-2.09,1.33-4.45,2-7.09,2-3.4,0-6.11-1.04-8.13-3.13-2.02-2.09-3.04-4.94-3.04-8.54,0-2.95.95-5.43,2.84-7.43,1.89-2,4.4-3,7.5-3ZM204.09,294.45c-1.8,0-3.26.51-4.37,1.53-1.11,1.02-1.77,2.49-1.98,4.43h12.23c-.11-1.96-.67-3.44-1.69-4.45-1.02-1.01-2.42-1.51-4.19-1.51Z"/>
    <path class="cls-11" d="M227.68,295.55v-3.06h3.88v-1.72c0-2.22.74-4.03,2.21-5.43,1.48-1.4,3.36-2.1,5.66-2.1,1.46,0,2.51.13,3.14.39v3.06c-.73-.23-1.7-.35-2.9-.35-1.28,0-2.29.38-3.02,1.14-.73.76-1.1,1.87-1.1,3.33v1.68h7.48v3.06h-7.45v17.56h-4.04v-17.56h-3.88Z"/>
    <path class="cls-11" d="M256.41,291.36c1.46,0,2.72.22,3.76.65,1.04.43,1.84,1.01,2.39,1.72.55.72.94,1.47,1.18,2.25.23.78.35,1.62.35,2.51v12.85c-2.38,1.41-5.11,2.12-8.19,2.12-2.85,0-5.04-.61-6.58-1.82-1.54-1.21-2.31-2.75-2.31-4.6,0-2.43,1.18-4.19,3.53-5.29s5.53-1.5,9.52-1.21v-2c0-1.25-.3-2.23-.9-2.92-.6-.69-1.67-1.04-3.21-1.04-2.61,0-5.06.65-7.33,1.96v-3.21c2.17-1.31,4.77-1.96,7.8-1.96ZM255.78,310.44c1.54,0,2.97-.33,4.27-.98v-6.19c-3.16-.26-5.47-.04-6.92.65-1.45.69-2.17,1.67-2.17,2.92,0,1.15.41,2.04,1.23,2.66.82.63,2.02.94,3.59.94Z"/>
    <path class="cls-11" d="M293.32,291.36c5.28,0,7.92,2.8,7.92,8.39v13.36h-4.04v-13.36c0-1.72-.31-3-.94-3.82-.63-.82-1.71-1.23-3.25-1.23-1.75,0-3.4.56-4.94,1.68v16.73h-4.04v-16.73c-1.18-1.12-2.59-1.68-4.23-1.68s-3.37.58-4.94,1.72v16.69h-4.04v-18.54c2.79-2.14,5.84-3.21,9.13-3.21,2.27,0,4.34.67,6.19,2,2.19-1.33,4.58-2,7.17-2Z"/>
    <path class="cls-11" d="M313.5,285.44c0,.84-.28,1.54-.84,2.12-.56.58-1.23.86-2.02.86-.84,0-1.53-.29-2.08-.86-.55-.57-.82-1.28-.82-2.12s.27-1.5.82-2.08c.55-.57,1.24-.86,2.08-.86.78,0,1.46.29,2.02.86.56.58.84,1.27.84,2.08ZM312.64,292.5v20.61h-4.04v-20.61h4.04Z"/>
    <path class="cls-11" d="M325.22,282.7v24.41c0,1.1.19,1.88.57,2.35.38.47,1.01.71,1.9.71s1.67-.22,2.43-.67v3.17c-.92.52-2.04.78-3.37.78-3.71,0-5.56-2.1-5.56-6.31v-24.45h4.04Z"/>
    <path class="cls-11" d="M337.37,319.54l3.53-6.92-4.08-6.48c-1.33-2.06-2.31-4.03-2.92-5.9-.61-1.87-.92-4.09-.92-6.68v-1.53h4.04v1.49c0,3.95.91,7.44,2.72,10.48l2.99,5.04.37-.73c.1-.19.36-.7.79-1.55.43-.85.72-1.41.86-1.69.14-.28.42-.81.82-1.61.4-.79.68-1.4.83-1.83s.36-1.03.63-1.81c.27-.77.46-1.45.57-2.04.11-.59.21-1.26.3-2.02.09-.76.13-1.5.13-2.24v-1.49h4.04v1.53c0,.92-.05,1.81-.15,2.67-.1.86-.3,1.78-.6,2.76-.3.98-.55,1.8-.75,2.47-.2.67-.55,1.48-1.04,2.44-.49.96-.85,1.65-1.07,2.07-.22.43-.61,1.19-1.18,2.28-.57,1.09-.93,1.79-1.08,2.09l-4.86,9.39-3.96-.18Z"/>
  </g>
</svg>